# File created by Blade
# Date/Time:  Wed Apr 08 16:19:59 2015
# Frame Rate: 120.000 fps
#------------------------------------------------------
:FULLY-SPECIFIED
:DEGREES
1925
root -18.167520 28.128382 -0.758505 373.307040 -82.234724 -432.415589
Spine -72.490030 -11.494700 1.717263
Head -92.081149 1.788766 12.573975
LeftShoulder -13.665339 -4.412747 47.398445
LeftArm 249.852816 -69.820273 -223.370826
LeftForeArm -30.944979 -0.000000 4.631687
LeftHand 16.340136 -0.000000 108.207586
LeftHandThumb1 -26.253704 0.000000 33.147579
RightShoulder -22.239976 49.792062 -54.604713
RightArm 3.901217 59.906408 -26.371870
RightForeArm 39.659681 -0.000000 6.837399
RightHand 19.280923 -0.000000 -106.477520
RightHandThumb1 -24.326973 -0.000000 -32.862282
LeftUpLeg 7.073281 3.665560 14.809537
LeftLeg 37.107426 -0.000000 -0.000000
LeftFoot 12.439828 -9.311302 -24.780507
LeftToeBase -35.073473 -0.000000 0.000000
RightUpLeg 5.366848 -13.864713 -6.759047
RightLeg 44.573946 -0.000000 -0.000000
RightFoot 22.110922 -2.864542 5.226334
RightToeBase -23.532708 -0.000000 0.000000
1926
root -18.162780 28.140452 -0.757722 373.351183 -82.248689 -432.517760
Spine -72.469972 -11.503733 1.738102
Head -92.083233 1.868577 12.566052
LeftShoulder -13.693154 -4.341991 47.459417
LeftArm 249.635220 -69.820052 -223.227517
LeftForeArm -30.849627 -0.000000 4.665975
LeftHand 16.311524 -0.000000 108.200361
LeftHandThumb1 -26.253704 0.000000 33.147579
RightShoulder -22.283000 49.848906 -54.581141
RightArm 4.095736 60.012078 -26.139168
RightForeArm 39.546330 0.000000 6.967035
RightHand 19.265159 -0.000000 -106.382808
RightHandThumb1 -24.326973 -0.000000 -32.862282
LeftUpLeg 7.111988 3.469002 14.798840
LeftLeg 37.108312 -0.000000 -0.000000
LeftFoot 12.725840 -9.311795 -24.876814
LeftToeBase -35.216660 -0.000000 0.000000
RightUpLeg 5.432532 -13.936887 -6.916089
RightLeg 44.471254 -0.000000 -0.000000
RightFoot 22.065123 -4.038134 4.038908
RightToeBase -21.474995 -0.000000 0.000000
1927
root -18.158726 28.152426 -0.754277 373.339051 -82.275241 -432.552024
Spine -72.459486 -11.472429 1.712326
Head -92.081545 1.865642 12.527160
LeftShoulder -13.681779 -4.224525 47.478808
LeftArm 249.839945 -69.837809 -223.504224
LeftForeArm -30.882708 -0.000000 4.585959
LeftHand 16.265713 -0.000000 108.226803
LeftHandThumb1 -26.253704 0.000000 33.147579
RightShoulder -22.358190 49.882602 -54.604930
RightArm 4.343381 60.094877 -25.881568
RightForeArm 39.437042 -0.000000 7.034193
RightHand 19.312816 -0.000000 -106.295272
RightHandThumb1 -24.326973 -0.000000 -32.862282
LeftUpLeg 7.146516 3.252914 14.780823
LeftLeg 37.076636 -0.000000 -0.000000
LeftFoot 13.144607 -9.399796 -25.063819
LeftToeBase -35.562833 -0.000000 0.000000
RightUpLeg 5.490997 -13.841321 -7.056028
RightLeg 44.372451 -0.000000 -0.000000
RightFoot 22.497850 -4.622680 3.088408
RightToeBase -20.758266 -0.000000 0.000000
1928
root -18.159975 28.163415 -0.756158 373.278731 -82.239358 -432.548666
Spine -72.437774 -11.510436 1.675209
Head -92.064440 1.833510 12.480333
LeftShoulder -13.629353 -4.216273 47.482704
LeftArm 250.521956 -69.924374 -224.132528
LeftForeArm -31.098644 -0.000000 4.391240
LeftHand 16.276347 -0.000000 108.195174
LeftHandThumb1 -26.253704 0.000000 33.147579
RightShoulder -22.424466 49.958042 -54.635478
RightArm 4.624417 60.144809 -25.627766
RightForeArm 39.325898 -0.000000 7.070864
RightHand 19.308381 -0.000000 -106.237740
RightHandThumb1 -24.326973 -0.000000 -32.862282
LeftUpLeg 7.164350 3.099734 14.800820
LeftLeg 37.101465 -0.000000 -0.000000
LeftFoot 13.416901 -9.455042 -25.088563
LeftToeBase -35.826333 -0.000000 0.000000
RightUpLeg 5.578265 -13.677391 -7.136260
RightLeg 44.323071 -0.000000 -0.000000
RightFoot 22.894996 -4.647423 2.401121
RightToeBase -20.216908 -0.000000 0.000000
1929
root -18.166301 28.173585 -0.759653 373.048894 -82.146378 -432.372227
Spine -72.412264 -11.608597 1.620508
Head -92.029787 1.776948 12.478590
LeftShoulder -13.587511 -4.175793 47.503002
LeftArm 250.850139 -69.978841 -224.474442
LeftForeArm -31.246320 -0.000000 4.288737
LeftHand 16.301112 -0.000000 108.176460
LeftHandThumb1 -26.253704 0.000000 33.147579
RightShoulder -22.457686 50.017607 -54.685655
RightArm 4.797516 60.218832 -25.449639
RightForeArm 39.187088 -0.000000 7.100642
RightHand 19.359770 -0.000000 -106.189700
RightHandThumb1 -24.326973 -0.000000 -32.862282
LeftUpLeg 7.162116 2.909797 14.818384
LeftLeg 37.144296 -0.000000 -0.000000
LeftFoot 13.623412 -9.510442 -25.119356
LeftToeBase -35.891576 -0.000000 0.000000
RightUpLeg 5.693091 -13.513941 -7.191037
RightLeg 44.275567 -0.000000 -0.000000
RightFoot 23.245570 -4.812680 1.644859
RightToeBase -19.131923 -0.000000 0.000000
1930
root -18.180237 28.183249 -0.758025 372.620764 -82.095720 -432.043948
Spine -72.323385 -11.654644 1.521914
Head -92.008810 1.696825 12.465508
LeftShoulder -13.583569 -4.169278 47.460100
LeftArm 250.762969 -70.054707 -224.315415
LeftForeArm -31.272877 -0.000000 4.194833
LeftHand 16.288932 -0.000000 108.161683
LeftHandThumb1 -26.253704 0.000000 33.147579
RightShoulder -22.475190 50.090381 -54.783864
RightArm 4.858377 60.299285 -25.334847
RightForeArm 39.028190 -0.000000 7.188679
RightHand 19.419058 0.000000 -106.165325
RightHandThumb1 -24.326973 -0.000000 -32.862282
LeftUpLeg 7.247527 2.747763 14.799367
LeftLeg 37.164551 -0.000000 -0.000000
LeftFoot 13.778401 -9.521732 -25.284155
LeftToeBase -35.637685 -0.000000 0.000000
RightUpLeg 5.879162 -13.273676 -7.291538
RightLeg 44.110502 -0.000000 -0.000000
RightFoot 24.017897 -5.697017 0.774614
RightToeBase -15.781294 -0.000000 0.000000
1931
root -18.195753 28.187358 -0.755492 372.276690 -82.032431 -431.707514
Spine -72.327937 -11.702922 1.446977
Head -91.962333 1.622717 12.456908
LeftShoulder -13.615346 -4.131803 47.412547
LeftArm 250.048378 -70.101865 -223.567853
LeftForeArm -31.152317 -0.000000 4.198828
LeftHand 16.283389 -0.000000 108.183180
LeftHandThumb1 -26.253704 0.000000 33.147579
RightShoulder -22.557052 50.154177 -55.002974
RightArm 4.879985 60.510549 -25.081502
RightForeArm 38.697127 -0.000000 7.441629
RightHand 19.418321 -0.000000 -106.216516
RightHandThumb1 -24.326973 -0.000000 -32.862282
LeftUpLeg 7.239543 2.643525 14.781971
LeftLeg 37.208768 -0.000000 -0.000000
LeftFoot 13.802099 -9.540758 -25.406162
LeftToeBase -35.556711 -0.000000 0.000000
RightUpLeg 6.012240 -12.836383 -7.333031
RightLeg 43.793200 -0.000000 -0.000000
RightFoot 25.332803 -6.909936 -0.020652
RightToeBase -13.994445 -0.000000 0.000000
